<svg id="visual" viewBox="0 0 900 600" width="900" height="600" xmlns="http://www.w3.org/2000/svg" xmlns:xlink="http://www.w3.org/1999/xlink" version="1.1"><rect x="0" y="0" width="900" height="600" fill="#2C0A6B"></rect><path d="M0 367L75 360.7C150 354.3 300 341.7 450 341.3C600 341 750 353 825 359L900 365L900 601L825 601C750 601 600 601 450 601C300 601 150 601 75 601L0 601Z" fill="#1a0b2e"></path><path d="M0 352L75 350.5C150 349 300 346 450 352.8C600 359.7 750 376.3 825 384.7L900 393L900 601L825 601C750 601 600 601 450 601C300 601 150 601 75 601L0 601Z" fill="#241044"></path><path d="M0 420L75 428.7C150 437.3 300 454.7 450 457.2C600 459.7 750 447.3 825 441.2L900 435L900 601L825 601C750 601 600 601 450 601C300 601 150 601 75 601L0 601Z" fill="#2f135c"></path><path d="M0 484L75 479.7C150 475.3 300 466.7 450 462.2C600 457.7 750 457.3 825 457.2L900 457L900 601L825 601C750 601 600 601 450 601C300 601 150 601 75 601L0 601Z" fill="#3a1575"></path><path d="M0 523L75 521.3C150 519.7 300 516.3 450 522.8C600 529.3 750 545.7 825 553.8L900 562L900 601L825 601C750 601 600 601 450 601C300 601 150 601 75 601L0 601Z" fill="#46178f"></path></svg>