<svg id="visual" viewBox="0 0 900 600" width="900" height="600" xmlns="http://www.w3.org/2000/svg" xmlns:xlink="http://www.w3.org/1999/xlink" version="1.1"><rect x="0" y="0" width="900" height="600" fill="#0d0628"></rect><defs><linearGradient id="grad1_0" x1="33.3%" y1="0%" x2="100%" y2="100%"><stop offset="20%" stop-color="#0d0628" stop-opacity="1"></stop><stop offset="80%" stop-color="#0d0628" stop-opacity="1"></stop></linearGradient></defs><defs><linearGradient id="grad2_0" x1="0%" y1="0%" x2="66.7%" y2="100%"><stop offset="20%" stop-color="#0d0628" stop-opacity="1"></stop><stop offset="80%" stop-color="#0d0628" stop-opacity="1"></stop></linearGradient></defs><g transform="translate(900, 0)"><path d="M0 486.7C-62.3 479.7 -124.6 472.7 -186.3 449.7C-248 426.7 -309.1 387.6 -333 333C-357 278.5 -343.7 208.5 -363.1 150.4C-382.5 92.3 -434.6 46.2 -486.7 0L0 0Z" fill="#46178F"></path></g><g transform="translate(0, 600)"><path d="M0 -486.7C50.1 -438.9 100.2 -391 150.8 -364C201.4 -337.1 252.4 -331 306.9 -306.9C361.3 -282.7 419.2 -240.4 449.7 -186.3C480.2 -132.1 483.5 -66.1 486.7 0L0 0Z" fill="#46178F"></path></g></svg>